HIERARCHY
ROOT Hips
{
    OFFSET 0.000000 0.000000 0.000000
    CHANNELS 6 Xposition Yposition Zposition Zrotation Xrotation Yrotation
    JOINT Spine
    {
        OFFSET -0.000000 14.517291 0.000000
        CHANNELS 3 Zrotation Xrotation Yrotation
        JOINT Spine1
        {
            OFFSET -0.000000 37.558300 0.000000
            CHANNELS 3 Zrotation Xrotation Yrotation
            JOINT Neck
            {
                OFFSET -0.000000 37.404057 3.400369
                CHANNELS 3 Zrotation Xrotation Yrotation
                JOINT Head
                {
                    OFFSET -0.000000 24.785618 -3.540803
                    CHANNELS 3 Zrotation Xrotation Yrotation
                    End Site
                    {
                        OFFSET -0.000000 35.408028 0.000000
                    }
                }
            }
            JOINT LeftShoulder
            {
                OFFSET 6.992933 33.973492 -0.192664
                CHANNELS 3 Zrotation Xrotation Yrotation
                JOINT LeftArm
                {
                    OFFSET 21.527611 0.000000 0.000000
                    CHANNELS 3 Zrotation Xrotation Yrotation
                    JOINT LeftForeArm
                    {
                        OFFSET 56.353916 0.000000 0.000000
                        CHANNELS 3 Zrotation Xrotation Yrotation
                        JOINT LeftHand
                        {
                            OFFSET 47.774071 0.000000 0.000000
                            CHANNELS 3 Zrotation Xrotation Yrotation
                            End Site
                            {
                                OFFSET 26.556021 0.000000 0.000000
                            }
                        }
                    }
                }
            }
            JOINT RightShoulder
            {
                OFFSET -7.065357 33.973492 -0.192664
                CHANNELS 3 Zrotation Xrotation Yrotation
                JOINT RightArm
                {
                    OFFSET -21.527611 0.000000 0.000000
                    CHANNELS 3 Zrotation Xrotation Yrotation
                    JOINT RightForeArm
                    {
                        OFFSET -56.353916 0.000000 0.000000
                        CHANNELS 3 Zrotation Xrotation Yrotation
                        JOINT RightHand
                        {
                            OFFSET -47.774071 0.000000 0.000000
                            CHANNELS 3 Zrotation Xrotation Yrotation
                            End Site
                            {
                                OFFSET -26.556021 0.000000 0.000000
                            }
                        }
                    }
                }
            }
        }
    }
    JOINT LeftUpLeg
    {
        OFFSET 17.704014 0.000000 0.000000
        CHANNELS 3 Zrotation Xrotation Yrotation
        JOINT LeftLeg
        {
            OFFSET -0.000000 -81.181816 0.000000
            CHANNELS 3 Zrotation Xrotation Yrotation
            JOINT LeftFoot
            {
                OFFSET -0.000000 -62.821102 0.000000
                CHANNELS 3 Zrotation Xrotation Yrotation
                JOINT LeftToeBase
                {
                    OFFSET -0.000000 -11.507608 26.556021
                    CHANNELS 3 Zrotation Xrotation Yrotation
                    End Site
                    {
                        OFFSET -0.000000 0.000000 7.081605
                    }
                }
            }
        }
    }
    JOINT RightUpLeg
    {
        OFFSET -17.704014 0.000000 0.000000
        CHANNELS 3 Zrotation Xrotation Yrotation
        JOINT RightLeg
        {
            OFFSET -0.000000 -81.181816 0.000000
            CHANNELS 3 Zrotation Xrotation Yrotation
            JOINT RightFoot
            {
                OFFSET -0.000000 -62.821102 0.000000
                CHANNELS 3 Zrotation Xrotation Yrotation
                JOINT RightToeBase
                {
                    OFFSET -0.000000 -11.507608 26.556021
                    CHANNELS 3 Zrotation Xrotation Yrotation
                    End Site
                    {
                        OFFSET -0.000000 0.000000 7.081605
                    }
                }
            }
        }
    }
}
MOTION
Frames:    9
Frame Time:    0.008333
21.182438    144.294388    -127.428009    -0.236028    -3.334844    41.265514    -1.652331    1.543034    -2.737606    -4.637185    1.011783    -0.879451    3.613167    2.126681    -17.831007    13.296745    0.852438    -17.305708    5.442913    8.407654    -19.032370    -27.879066    21.943377    -53.039577    -2.682886    -7.621355    -105.393936    6.341242    -11.696877    -11.019990    -7.041221    0.663313    -3.574880    23.826511    -18.373922    46.373516    -21.227924    -18.396856    64.862679    -0.257808    -5.084357    34.782772    29.270756    1.500878    2.937573    -13.020971    37.074951    -18.810982    -7.548477    -35.780090    36.879917    0.000000    0.000000    0.000000    -30.265940    -23.087156    -20.583332    15.480261    31.230671    -15.073440    5.039292    5.216823    -14.815602    0.000000    0.000000    0.000000    
21.182442    144.293976    -127.476837    -0.236822    -3.302565    41.272461    -1.626061    1.572039    -2.734157    -4.656929    0.977984    -0.879501    3.612982    2.132725    -17.833258    13.276466    0.819223    -17.306658    5.445230    8.409055    -19.042723    -27.858280    21.957027    -53.061428    -2.669109    -7.652371    -105.396492    6.375578    -11.712965    -11.016512    -7.060858    0.656219    -3.592060    23.837637    -18.378788    46.388409    -21.221357    -18.394993    64.885468    -0.317174    -5.099230    34.784794    29.243301    1.445869    2.952511    -13.034685    37.107311    -18.807137    -7.530784    -35.779404    36.883087    0.000000    0.000000    0.000000    -30.292561    -23.107357    -20.581190    15.464594    31.202553    -15.078042    5.079522    5.224939    -14.837098    0.000000    0.000000    0.000000    
21.182259    144.292450    -127.530861    -0.238030    -3.259700    41.285038    -1.601988    1.595874    -2.739855    -4.675516    0.943159    -0.882594    3.612755    2.115608    -17.828314    13.246607    0.819144    -17.305876    5.445629    8.412163    -19.056988    -27.849787    21.959375    -53.071125    -2.644616    -7.686223    -105.402664    6.339511    -11.712199    -11.022751    -7.078786    0.644821    -3.591775    23.819641    -18.352596    46.380093    -21.256289    -18.442120    64.884682    -0.273501    -5.112154    34.816692    29.210995    1.376580    2.974042    -13.049847    37.148979    -18.821672    -7.493865    -35.771839    36.898735    0.000000    0.000000    0.000000    -30.330090    -23.129656    -20.608440    15.439663    31.167427    -15.072156    5.099591    5.240804    -14.854249    0.000000    0.000000    0.000000    
21.186890    144.289124    -127.577850    -0.239583    -3.231225    41.299061    -1.558627    1.624726    -2.737872    -4.701673    0.913909    -0.882875    3.602656    2.111827    -17.832314    13.236952    0.807979    -17.308846    5.448007    8.412570    -19.074738    -27.834167    21.969244    -53.094444    -2.635142    -7.717704    -105.405312    6.310716    -11.728117    -11.019201    -7.099205    0.665442    -3.604174    23.818233    -18.351835    46.389854    -21.299311    -18.489252    64.886703    -0.246860    -5.124102    34.796711    29.192865    1.313437    2.967841    -13.087665    37.200237    -18.813643    -7.477378    -35.785889    36.924549    0.000000    0.000000    0.000000    -30.358810    -23.141064    -20.613447    15.419097    31.142035    -15.072507    5.132845    5.250139    -14.856394    0.000000    0.000000    0.000000    
21.192829    144.281723    -127.625038    -0.239240    -3.199222    41.318645    -1.508960    1.641789    -2.750120    -4.738171    0.908760    -0.886639    3.614942    2.100012    -17.821156    13.205597    0.784075    -17.300461    5.459186    8.415442    -19.076975    -27.819088    21.953695    -53.121510    -2.628116    -7.734837    -105.414925    6.306803    -11.735936    -11.015099    -7.114993    0.673533    -3.600836    23.804131    -18.355379    46.384895    -21.335867    -18.542082    64.901924    -0.244230    -5.150321    34.796036    29.166840    1.247437    2.969402    -13.100581    37.252045    -18.827806    -7.454123    -35.794292    36.935982    0.000000    0.000000    0.000000    -30.400284    -23.151516    -20.640341    15.402297    31.131912    -15.068995    5.178228    5.237546    -14.854500    0.000000    0.000000    0.000000    
21.204788    144.275070    -127.669922    -0.230243    -3.179836    41.339863    -1.441842    1.682612    -2.759053    -4.781919    0.887473    -0.889919    3.605557    2.107616    -17.818201    13.203083    0.744772    -17.291710    5.456576    8.412105    -19.098543    -27.804819    21.962715    -53.132271    -2.597709    -7.788361    -105.418762    6.287105    -11.748078    -11.013503    -7.138375    0.676819    -3.615955    23.797371    -18.339369    46.385998    -21.360760    -18.595842    64.930092    -0.193065    -5.166733    34.784454    29.145857    1.200327    2.933458    -13.142006    37.287640    -18.817102    -7.408438    -35.793461    36.960453    0.000000    0.000000    0.000000    -30.442543    -23.137978    -20.658531    15.399981    31.102987    -15.081412    5.225637    5.234104    -14.847342    0.000000    0.000000    0.000000    
21.216501    144.264038    -127.711487    -0.220429    -3.162346    41.360455    -1.385665    1.716900    -2.762335    -4.792031    0.880586    -0.891040    3.590018    2.093138    -17.824707    13.167746    0.743726    -17.301451    5.443710    8.406774    -19.129423    -27.814384    21.942154    -53.133781    -2.579586    -7.799043    -105.418831    6.285525    -11.735871    -11.028413    -7.179255    0.700334    -3.635501    23.762373    -18.294905    46.396000    -21.473520    -18.705576    64.888626    -0.172083    -5.211715    34.806305    29.127996    1.155146    2.926127    -13.165301    37.336861    -18.838440    -7.382219    -35.806419    36.974674    0.000000    0.000000    0.000000    -30.489136    -23.128794    -20.702021    15.393218    31.101887    -15.086378    5.258720    5.219264    -14.824759    0.000000    0.000000    0.000000    
21.235701    144.247055    -127.744911    -0.206519    -3.151787    41.386505    -1.308609    1.752470    -2.772286    -4.817424    0.885585    -0.893639    3.581376    2.084672    -17.830883    13.120295    0.713713    -17.309856    5.417353    8.392015    -19.143768    -27.810762    21.929506    -53.142731    -2.563731    -7.805274    -105.420578    6.293108    -11.721597    -11.015365    -7.228916    0.686807    -3.637643    23.745132    -18.250076    46.372890    -21.560997    -18.800787    64.888733    -0.101075    -5.231650    34.844788    29.108133    1.115657    2.922478    -13.174932    37.391964    -18.837133    -7.365328    -35.817814    36.962902    0.000000    0.000000    0.000000    -30.543432    -23.106050    -20.736963    15.414783    31.100748    -15.140556    5.291025    5.196166    -14.775808    0.000000    0.000000    0.000000    
21.257454    144.226105    -127.769592    -0.192582    -3.150741    41.417599    -1.212679    1.789705    -2.776270    -4.847887    0.898819    -0.893731    3.593218    2.067140    -17.826273    13.043663    0.675836    -17.312887    5.391388    8.378856    -19.164797    -27.800426    21.923180    -53.158092    -2.519992    -7.818745    -105.398949    6.309705    -11.682714    -11.084667    -7.278142    0.649539    -3.657932    23.697752    -18.160244    46.341137    -21.667908    -18.928736    64.885658    -0.048130    -5.279397    34.843853    29.098974    1.074364    2.940359    -13.161181    37.469727    -18.923531    -7.319694    -35.844040    37.008804    0.000000    0.000000    0.000000    -30.598986    -23.070431    -20.796648    15.443951    31.112324    -15.191256    5.322186    5.149592    -14.709572    0.000000    0.000000    0.000000    
